<svg xmlns="http://www.w3.org/2000/svg" viewBox="0 0 32 32">
  <defs>
    <clipPath id="c">
      <rect x="10" y="2" width="12" height="28" rx="6"/>
    </clipPath>
  </defs>
  <rect width="32" height="32" rx="7" fill="#1A1A1A"/>
  <g clip-path="url(#c)">
    <rect x="10" y="2" width="12" height="28" fill="#2A2A2A"/>
    <polygon points="7,2 23,2 23,8 7,10" fill="#C9A84C"/>
    <polygon points="7,13 23,11 23,17 7,19" fill="#C9A84C"/>
    <polygon points="7,22 23,20 23,26 7,28" fill="#C9A84C"/>
    <polygon points="7,8 23,6 23,13 7,15" fill="#F0F0F0" opacity="0.12"/>
    <polygon points="7,17 23,15 23,22 7,24" fill="#F0F0F0" opacity="0.12"/>
  </g>
  <ellipse cx="16" cy="2.5" rx="6" ry="2.5" fill="#C9A84C"/>
  <ellipse cx="16" cy="29.5" rx="6" ry="2.5" fill="#C9A84C"/>
</svg>
